<?xml version="1.0" encoding="UTF-8" standalone="no"?>
<svg width="673" height="662" viewBox="0 0 673 662" fill="none" xmlns="http://www.w3.org/2000/svg">
<ellipse cx="336.5" cy="331" rx="336.5" ry="331" fill="url(#paint0_radial)"/>
<path d="M582 331C582 466.31 472.31 576 337 576C201.69 576 92 466.31 92 331C92 195.69 201.69 86 337 86C472.31 86 582 195.69 582 331Z" fill="white"/>
<path d="M583 330.5C583 194.919 472.858 85 337 85C204.66 85 96.7646 189.305 91.2542 320.025C91.1886 321.629 91.1722 323.258 91.1394 324.87C91.0984 326.752 91 328.618 91 330.5V331.327C91 466.458 201.142 576 337 576C472.858 576 583 466.458 583 331.327L582.984 330.926L583 330.5ZM386.118 554.322C381.813 551.99 377.68 548.168 375.999 542.964C372.957 533.537 375.31 526.221 378.804 517.71C381.592 510.893 377.844 503.021 379.697 495.885C383.314 481.998 387.676 466.949 386.331 452.031C385.495 442.874 383.461 442.456 376.672 437.17C369.513 431.564 369.513 423.635 364.724 416.548C360.386 410.107 372.063 385.639 368.808 384.15C365.159 382.472 356.86 384.665 354.236 381.188C351.416 377.44 349.448 373.012 345.569 370.107C343.068 368.233 332.006 361.965 329.054 362.407C314.188 364.624 298.083 350.156 288.595 340.721C282.06 334.248 279.338 326.989 274.549 319.502C270.498 313.16 264.364 312.611 261.355 304.747C258.198 296.531 260.076 286.007 259.116 277.366C258.075 268.078 253.45 265.115 247.669 258.012C235.304 242.766 230.753 220.017 207.292 220.017C194.689 220.017 195.583 247.415 185.431 243.74C173.951 239.591 156.19 259.215 156.444 256.572C157.789 242.873 171.885 236.212 173.262 232.128C177.764 218.724 153.148 221.932 156.305 210.753C157.846 205.254 173.508 201.252 170.269 197.971C169.294 196.973 157.313 188.585 157.904 188.167C160.126 186.612 169.786 191.539 167.686 185.139C166.981 183.012 165.841 181.056 164.759 179.084C169.738 173.442 174.992 168.048 180.503 162.922C188.818 162.242 197.444 162.758 200.568 163.364C220.38 167.259 227.268 177.267 247.079 169.861C256.607 166.31 291.728 172.472 296.763 182.439C299.501 187.889 309.702 179.141 313.679 178.552C317.943 177.914 327.578 184.468 330.514 180.45C338.246 169.886 325.561 165.499 340.542 173.634C350.587 179.092 370.218 155.09 364.003 183.298C359.517 203.634 343.035 204.084 330.948 217.333C319.05 230.377 354.491 233.928 355.401 245.712C358.025 279.641 376.155 242.947 371.301 230.884C361.912 207.521 381.985 213.937 390.07 228.781C394.556 237.022 397.967 230.082 403.461 227.21C407.914 224.894 409.103 237.439 410.062 239.624C413.219 246.883 423.592 249.051 421.837 258.397C419.886 268.699 412.547 265.606 405.372 267.349C397.36 269.289 406.667 276.015 405.503 278.47C404.24 281.155 394.58 282.267 392.006 283.79C384.429 288.241 389.062 296.924 383.133 301.588C379.066 304.796 374.966 302.709 374.179 308.716C373.252 315.795 360.181 318.07 361.879 324.837C362.346 326.695 366.11 340.574 363.74 341.31C362.65 341.662 354.031 329.24 351.678 327.996C347.02 325.533 325.848 327.546 323.126 341.531C321.363 350.574 335.942 364.854 339.657 352.399C344.257 337.071 346.446 361.327 345.339 362.276C347.537 364.191 360.395 359.125 356.582 368.004C354.966 371.76 358.164 381.556 363.871 378.536C366.258 377.276 372.408 381.073 373.482 379.035C375.026 376.688 377.113 374.746 379.566 373.372C385.314 370.017 393.916 373.168 400.214 373.536C404.06 373.757 435.58 390.918 435.753 394.363C436.441 407.251 460.271 405.574 463.928 410.181C473.76 422.669 470.734 416.327 463.559 432.325C459.943 440.378 463.091 450.255 454.334 456.09C450.119 458.888 444.978 457.489 441.23 461.45C437.852 465.026 439.18 469.298 437.13 473.43C434.662 478.348 401.493 508.095 399.304 515.288C398.213 518.897 388.316 522.039 396.663 525.501C401.518 526.925 385.913 541.646 393.416 547.743C395.245 549.224 396.442 550.476 397.344 551.597C393.596 552.596 389.882 553.504 386.118 554.322ZM366.471 103.306C366.151 104.493 366.635 105.892 368.693 107.259C373.334 110.327 367.365 117.144 360.96 112.75C354.573 108.355 340.206 114.722 341.198 118.02C342.174 121.318 346.61 122.627 353.466 120C360.304 117.365 363.125 120.393 364.273 123.519C365.06 125.638 364.273 126.817 364.052 129.673C363.847 132.529 355.885 130.548 349.267 130.999C342.633 131.44 335.573 129.673 335.778 125.933C336 122.201 328.718 115.385 324.372 112.537C320.034 109.689 326.274 103.535 332.031 108.142C337.763 112.758 337.992 107.267 344.618 105.516C348.382 104.517 346.873 103.02 345.594 101.596C352.646 101.841 359.599 102.43 366.471 103.306ZM395.31 175.884C400.271 177.226 408.889 183.486 408.889 186.449C408.889 189.419 404.978 193.135 403.248 192.709C390.759 189.673 380.23 177.373 374.433 170.639C364.314 158.896 364.954 168.961 348.923 163.879C344.823 162.57 338.32 149.877 342.625 143.617C346.93 137.357 351.899 136.367 355.868 138.028C359.837 139.665 371.432 132.75 374.097 140.99C376.737 149.231 384.027 159.747 390.661 162.562C397.303 165.36 390.333 174.542 395.31 175.884ZM399.287 214.125C401.272 218.077 387.356 209.509 384.043 205.557C380.747 201.613 375.761 192.701 379.755 188.748C383.724 184.804 392.629 196.973 397.311 199.632C406.569 204.91 397.303 210.18 399.287 214.125ZM328.816 154.264C329.776 152.946 331.809 156.244 333.622 159.542C335.434 162.84 332.933 167.488 328.816 166.784C324.7 166.097 326.512 157.488 328.816 154.264ZM328.816 121.105C328.816 121.105 332.695 130.548 328.816 129.01C324.938 127.471 324.749 123.519 328.816 121.105ZM329.604 150.974C328.497 148.347 328.242 137.553 330.932 134.28C334.901 129.452 341.313 138.895 337 142.627C332.695 146.367 330.702 153.617 329.604 150.974ZM279.772 162.553C272.564 162.038 272.409 155.819 271.408 152.521C270.408 149.223 264.438 158.781 258.403 152.521C252.368 146.26 259.813 138.028 258.485 133.077C257.157 128.134 272.72 133.077 275.049 133.077C277.378 133.077 283.667 143.29 285.315 143.118C286.98 142.954 295.918 151.195 295.918 147.897C295.918 144.607 297.279 138.994 303.544 138.339C313.154 137.349 304.536 148.887 304.2 153.38C303.88 157.873 311.506 165.688 314.302 168.986C317.123 172.283 307.193 174.599 305.528 172.611C303.88 170.63 299.567 172.611 295.918 175.246C292.285 177.881 282.339 171.621 277.706 169.64C273.065 167.668 286.98 163.061 279.772 162.553ZM305.528 110.557C311.933 112.758 315.573 114.73 318.722 110.557C321.764 106.53 324.085 119.337 321.879 122.848C319.665 126.375 315.475 125.499 314.803 122.848C314.147 120.229 299.124 108.355 305.528 110.557ZM314.803 150.319C312.605 147.455 312.384 144.166 314.803 141.751C317.238 139.337 316.451 136.481 320.78 135.606C322.912 135.164 323.199 138.454 323.199 141.53C323.199 144.607 325.856 148.56 323.199 153.38C320.551 158.2 317.017 153.167 314.803 150.319ZM332.884 101.473C332.785 102.079 332.383 102.439 331.375 102.34C330.681 102.223 330.021 101.958 329.44 101.563C330.596 101.522 331.727 101.489 332.884 101.473ZM282.79 110.778C287.866 110.778 287.21 114.198 291.408 116.661C295.606 119.116 293.392 103.961 296.262 109.673C299.132 115.377 307.652 123.29 303.552 124.82C300.026 126.154 285.233 131.85 283.905 130.868C282.577 129.886 280.814 125.712 277.271 124.82C273.729 123.944 269.981 115.597 267.546 115.818C266.619 115.9 266.537 114.313 267.144 112.201C271.403 110.833 275.702 109.591 280.035 108.478C280.51 109.771 281.232 110.778 282.79 110.778ZM393.646 356.482C388.357 361.932 379.246 352.685 372.957 353.012C366.668 353.34 363.511 346.752 358.049 347.415C352.572 348.061 359.542 340.484 367.16 344.453C374.761 348.405 397.959 352.022 393.646 356.482ZM499.672 168.806C498.13 170.77 496.375 172.144 494.694 173.593C489.733 177.881 480.459 177.554 479.131 180.516C477.802 183.478 474.489 192.701 462.895 192.742C451.3 192.775 454.613 210.18 453.62 215.148C452.628 220.115 449.988 225.991 446.667 221.703C443.354 217.423 442.026 219.059 431.776 206.539C421.526 194.018 425.462 187.103 428.783 183.478C432.095 179.861 433.424 171.285 428.783 172.603C424.141 173.92 421.493 170.95 422.485 166.85C423.477 162.75 428.446 159.755 422.485 155.377C416.524 151.007 419.828 135.368 415.195 121.097C410.554 106.817 404.256 116.923 393.99 117.471C383.724 118.02 382.059 110.327 386.7 106.809C429.526 116.26 468.735 137.777 499.672 168.806Z" fill="#1DDBB5"/>
<defs>
<radialGradient id="paint0_radial" cx="0" cy="0" r="1" gradientUnits="userSpaceOnUse" gradientTransform="translate(336.5 331) rotate(90) scale(331 336.5)">
<stop offset="0.0540143" stop-color="#1DDBB5"/>
<stop offset="0.729167" stop-color="#1DDBB5"/>
<stop offset="1" stop-color="#1DDBB5" stop-opacity="0.06"/>
</radialGradient>
</defs>
</svg>