<svg width="75" height="75" viewBox="0 0 75 75" fill="none" xmlns="http://www.w3.org/2000/svg">
<circle cx="37.5" cy="37.5" r="37.5" fill="#1DDBB5"/>
<path d="M19.25 43.625C17.7582 43.625 16.3274 43.0324 15.2725 41.9775C14.2176 40.9226 13.625 39.4918 13.625 38C13.625 36.5082 14.2176 35.0774 15.2725 34.0225C16.3274 32.9676 17.7582 32.375 19.25 32.375C20.7418 32.375 22.1726 32.9676 23.2275 34.0225C24.2824 35.0774 24.875 36.5082 24.875 38C24.875 39.4918 24.2824 40.9226 23.2275 41.9775C22.1726 43.0324 20.7418 43.625 19.25 43.625ZM38 43.625C36.5082 43.625 35.0774 43.0324 34.0225 41.9775C32.9676 40.9226 32.375 39.4918 32.375 38C32.375 36.5082 32.9676 35.0774 34.0225 34.0225C35.0774 32.9676 36.5082 32.375 38 32.375C39.4918 32.375 40.9226 32.9676 41.9775 34.0225C43.0324 35.0774 43.625 36.5082 43.625 38C43.625 39.4918 43.0324 40.9226 41.9775 41.9775C40.9226 43.0324 39.4918 43.625 38 43.625ZM56.75 43.625C55.2582 43.625 53.8274 43.0324 52.7725 41.9775C51.7176 40.9226 51.125 39.4918 51.125 38C51.125 36.5082 51.7176 35.0774 52.7725 34.0225C53.8274 32.9676 55.2582 32.375 56.75 32.375C58.2418 32.375 59.6726 32.9676 60.7275 34.0225C61.7824 35.0774 62.375 36.5082 62.375 38C62.375 39.4918 61.7824 40.9226 60.7275 41.9775C59.6726 43.0324 58.2418 43.625 56.75 43.625Z" fill="white"/>
</svg>
